<?xml version="1.0" encoding="UTF-8" standalone="no"?>
<svg
   xmlns:dc="http://purl.org/dc/elements/1.1/"
   xmlns:cc="http://creativecommons.org/ns#"
   xmlns:rdf="http://www.w3.org/1999/02/22-rdf-syntax-ns#"
   xmlns:svg="http://www.w3.org/2000/svg"
   xmlns="http://www.w3.org/2000/svg"
   xmlns:xlink="http://www.w3.org/1999/xlink"
   xmlns:sodipodi="http://sodipodi.sourceforge.net/DTD/sodipodi-0.dtd"
   xmlns:inkscape="http://www.inkscape.org/namespaces/inkscape"
   sodipodi:docname="booktobook_logo.svg"
   inkscape:version="1.0beta2 (2b71d25, 2019-12-03)"
   id="svg8"
   version="1.1"
   viewBox="0 0 95.849442 97.015182"
   height="97.015182mm"
   width="95.849442mm">
  <defs
     id="defs2">
    <rect
       id="rect904"
       height="13.384808"
       width="33.250679"
       y="169.63483"
       x="72.982422" />
    <path
       style="fill:none;stroke:#000000;stroke-width:0.304212;stroke-opacity:1"
       id="path898-0"
       sodipodi:type="arc"
       sodipodi:cx="98.491127"
       sodipodi:cy="148.39273"
       sodipodi:rx="22.851717"
       sodipodi:ry="23.156048"
       sodipodi:start="0"
       sodipodi:end="3.1415927"
       sodipodi:open="true"
       sodipodi:arc-type="arc"
       d="m 121.34284,148.39273 a 22.851717,23.156048 0 0 1 -11.42585,20.05373 22.851717,23.156048 0 0 1 -22.851722,0 22.851717,23.156048 0 0 1 -11.425858,-20.05373" />
    <path
       d="m 121.34284,148.39273 a 22.851717,23.156048 0 0 1 -11.42585,20.05373 22.851717,23.156048 0 0 1 -22.851722,0 22.851717,23.156048 0 0 1 -11.425858,-20.05373"
       sodipodi:arc-type="arc"
       sodipodi:open="true"
       sodipodi:end="3.1415927"
       sodipodi:start="0"
       sodipodi:ry="23.156048"
       sodipodi:rx="22.851717"
       sodipodi:cy="148.39273"
       sodipodi:cx="98.491127"
       sodipodi:type="arc"
       id="path898-0-1"
       style="fill:none;stroke:#000000;stroke-width:0.304212;stroke-opacity:1" />
    <path
       style="fill:none;stroke:#000000;stroke-width:0.304212;stroke-opacity:1"
       id="path898-0-1-9"
       sodipodi:type="arc"
       sodipodi:cx="98.491127"
       sodipodi:cy="148.39273"
       sodipodi:rx="22.851717"
       sodipodi:ry="23.156048"
       sodipodi:start="0"
       sodipodi:end="3.1415927"
       sodipodi:open="true"
       sodipodi:arc-type="arc"
       d="m 121.34284,148.39273 a 22.851717,23.156048 0 0 1 -11.42585,20.05373 22.851717,23.156048 0 0 1 -22.851722,0 22.851717,23.156048 0 0 1 -11.425858,-20.05373" />
  </defs>
  <sodipodi:namedview
     inkscape:window-maximized="0"
     inkscape:window-y="23"
     inkscape:window-x="0"
     inkscape:window-height="755"
     inkscape:window-width="1280"
     showgrid="false"
     inkscape:document-rotation="0"
     inkscape:current-layer="layer1"
     inkscape:document-units="mm"
     inkscape:cy="304.18746"
     inkscape:cx="-22.425367"
     inkscape:zoom="0.78304736"
     inkscape:pageshadow="2"
     inkscape:pageopacity="1"
     borderopacity="1.0"
     bordercolor="#666666"
     pagecolor="#ffffff"
     id="base"
     fit-margin-top="0"
     fit-margin-left="0"
     fit-margin-right="0"
     fit-margin-bottom="0" />
  <metadata
     id="metadata5">
    <rdf:RDF>
      <cc:Work
         rdf:about="">
        <dc:format>image/svg+xml</dc:format>
        <dc:type
           rdf:resource="http://purl.org/dc/dcmitype/StillImage" />
        <dc:title />
      </cc:Work>
    </rdf:RDF>
  </metadata>
  <g
     id="layer1"
     inkscape:groupmode="layer"
     inkscape:label="Layer 1"
     transform="translate(-50.54865,-99.28)">
    <path
       sodipodi:nodetypes="sscccccccsscccccccs"
       inkscape:connector-curvature="0"
       d="m 122.35322,189.74533 c -14.7752,8.53046 -32.978987,8.53046 -47.754182,0 -14.775196,-8.53046 -23.877091,-24.29541 -23.898076,-41.26507 5.986216,-2.64243 7.803034,-3.46921 7.803034,-3.46921 l 2.40288,-1.09348 2.203819,-1.03913 c 6.004616,2.73567 7.845393,3.56275 7.845393,3.56275 l 2.434574,1.09383 2.282295,0.94911 c -0.03355,8.18146 4.321964,15.8259 11.392311,19.96233 7.070347,4.13643 15.781372,4.13643 22.851722,0 7.07034,-4.13643 11.42585,-11.78087 11.39189,-20.14576 5.9757,2.66588 7.79324,3.49999 7.79324,3.49999 l 2.40387,1.10317 2.20175,1.04877 7.81782,-3.59688 2.42703,-1.10447 2.29319,-0.95645 c -0.0155,17.15509 -9.11737,32.92004 -23.89256,41.4505 z"
       style="fill:#ce9100;fill-opacity:1;stroke:#bf7500;stroke-width:0.304212;stroke-opacity:1"
       id="path898" />
    <text
       id="text987"
       y="154.39772"
       x="85.475014"
       style="font-style:normal;font-variant:normal;font-weight:900;font-stretch:normal;font-size:19.7556px;line-height:1.25;font-family:Arial;-inkscape-font-specification:'Arial Black Normal';font-variant-ligatures:normal;font-variant-caps:normal;font-variant-numeric:normal;font-variant-east-asian:normal;fill:#000000;fill-opacity:1;stroke:none;stroke-width:0.264583"
       xml:space="preserve"><tspan
         style="font-style:normal;font-variant:normal;font-weight:900;font-stretch:normal;font-size:19.7556px;font-family:Arial;-inkscape-font-specification:'Arial Black Normal';font-variant-ligatures:normal;font-variant-caps:normal;font-variant-numeric:normal;font-variant-east-asian:normal;stroke-width:0.264583"
         y="154.39772"
         x="85.475014"
         id="tspan985"
         sodipodi:role="line">TO</tspan></text>
    <text
       transform="rotate(15.88763,75.860643,151.31204)"
       id="text937-1-5"
       style="font-style:normal;font-variant:normal;font-weight:900;font-stretch:normal;font-size:19.7556px;line-height:1.25;font-family:Arial;-inkscape-font-specification:'Arial Black Normal';font-variant-ligatures:normal;font-variant-caps:normal;font-variant-numeric:normal;font-variant-east-asian:normal;fill:#ffffff;fill-opacity:1;stroke:none;stroke-width:0.264583"
       xml:space="preserve"><textPath
         id="textPath939-3-3"
         xlink:href="#path898-0-1"><tspan
           id="tspan935-7-5"
           style="font-style:normal;font-variant:normal;font-weight:900;font-stretch:normal;font-size:19.7556px;font-family:Arial;-inkscape-font-specification:'Arial Black Normal';font-variant-ligatures:normal;font-variant-caps:normal;font-variant-numeric:normal;font-variant-east-asian:normal;fill:#ffffff;stroke-width:0.264583">BOOK</tspan></textPath></text>
    <path
       id="path898-5"
       style="fill:#009100;fill-opacity:1;stroke:#007500;stroke-width:0.304213;stroke-opacity:1"
       d="m 74.593523,105.82985 c 14.775204,-8.530455 32.978997,-8.530455 47.754187,0 14.77519,8.53046 23.87709,24.29541 23.89807,41.26507 -5.98621,2.64243 -7.80303,3.46921 -7.80303,3.46921 l -2.40288,1.09348 -2.20382,1.03913 c -6.00462,-2.73567 -7.84539,-3.56275 -7.84539,-3.56275 l -2.43458,-1.09383 -2.28229,-0.94911 c 0.0335,-8.18146 -4.32197,-15.8259 -11.39231,-19.96233 -7.07035,-4.13643 -15.781373,-4.13643 -22.851723,0 -7.070344,4.13643 -11.425854,11.78087 -11.391894,20.14576 -5.9757,-2.66588 -7.79324,-3.49999 -7.79324,-3.49999 l -2.40387,-1.10317 -2.20175,-1.04877 -7.81782,3.59688 -2.42703,1.10447 -2.29319,0.95645 c 0.0155,-17.15509 9.11737,-32.92004 23.89256,-41.4505 z"
       inkscape:connector-curvature="0"
       sodipodi:nodetypes="sscccccccsscccccccs" />
    <text
       inkscape:transform-center-y="-4.0621408"
       inkscape:transform-center-x="-1.0508991"
       xml:space="preserve"
       style="font-style:normal;font-variant:normal;font-weight:bold;font-stretch:normal;font-size:19.7556px;line-height:1.25;font-family:Arial;-inkscape-font-specification:'Arial Bold';font-variant-ligatures:normal;font-variant-caps:normal;font-variant-numeric:normal;font-variant-east-asian:normal;fill:#ffffff;fill-opacity:1;stroke:none;stroke-width:0.264583"
       id="text937-1-5-4"
       transform="matrix(-1.113561,-0.03787013,0.08758261,-1.0333915,194.06872,298.45034)"><textPath
         xlink:href="#path898-0-1-9"
         id="textPath939-3-3-9">BOOKS</textPath></text>
  </g>
</svg>
